<?xml version="1.0" encoding="UTF-8" standalone="no"?>
<svg
   xmlns:dc="http://purl.org/dc/elements/1.1/"
   xmlns:cc="http://creativecommons.org/ns#"
   xmlns:rdf="http://www.w3.org/1999/02/22-rdf-syntax-ns#"
   xmlns:svg="http://www.w3.org/2000/svg"
   xmlns="http://www.w3.org/2000/svg"
   viewBox="0 0 307.16132 358.58401"
   height="358.58401"
   width="307.16132"
   xml:space="preserve"
   id="svg2"
   version="1.1"><metadata
     id="metadata8"><rdf:RDF><cc:Work
         rdf:about=""><dc:format>image/svg+xml</dc:format><dc:type
           rdf:resource="http://purl.org/dc/dcmitype/StillImage" /></cc:Work></rdf:RDF></metadata><defs
     id="defs6" /><g
     transform="matrix(1.3333333,0,0,-1.3333333,0,358.584)"
     id="g10"><g
       transform="translate(0,199.5084)"
       id="g12"><path
         id="path14"
         style="fill:#ffffff;fill-opacity:1;fill-rule:nonzero;stroke:none"
         d="m 0,0 v -133.007 l 115.185,-66.501 115.186,66.501 V 0 L 115.185,66.501 Z" /></g><g
       transform="translate(8.2325,194.9115)"
       id="g16"><path
         id="path18"
         style="fill:#ffffff;fill-opacity:1;fill-rule:nonzero;stroke:none"
         d="M 0,0 106.95,61.708 214.232,-0.1 l -0.133,-123.535 -107.286,-61.941 -106.908,61.99 z" /></g><g
       transform="translate(167.7525,163.3549)"
       id="g20"><path
         id="path22"
         style="fill:#ffffff;fill-opacity:1;fill-rule:nonzero;stroke:none"
         d="m 0,0 v -1.03 l 1.305,0.753 v 0.234 1.057 L 0.63,1.403 -0.9,0.521 Z" /></g><g
       transform="translate(166.7183,103.0346)"
       id="g24"><path
         id="path26"
         style="fill:#ffffff;fill-opacity:1;fill-rule:nonzero;stroke:none"
         d="m 0,0 -0.656,-0.379 1.931,-1.111 1.064,0.614 v 0.848 L 0,1.318 Z" /></g><g
       transform="translate(221.5142,72.8148)"
       id="g28"><path
         id="path30"
         style="fill:#231f20;fill-opacity:1;fill-rule:nonzero;stroke:none"
         d="m 0,0 -52.457,30.191 v -0.847 l -1.064,-0.615 52.764,-30.364 -104.675,-60.435 -0.006,60.826 -0.894,-0.517 -0.9,0.52 0.005,-60.829 -104.557,60.368 52.641,30.431 -1.064,0.615 v 0.847 l -52.45,-30.324 v 120.676 l 52.45,-30.283 v 0.23 1.064 l 0.672,0.388 -52.225,30.154 104.533,60.354 -0.005,-60.311 0.9,0.52 0.894,-0.516 0.006,60.307 104.535,-60.354 -52.235,-30.153 0.675,-0.389 V 90.497 90.263 L 0,120.543 Z m -106.329,185.039 -107.674,-62.166 -0.448,-0.258 V -2.235 l 108.122,-62.424 107.675,62.166 0.448,0.258 v 1.203 123.648 z" /></g><g
       transform="translate(166.8521,163.8754)"
       id="g32"><path
         id="path34"
         style="fill:#308592;fill-opacity:1;fill-rule:nonzero;stroke:none"
         d="m 0,0 -50.775,29.314 -0.892,0.515 -0.903,-0.521 -50.769,-29.312 50.764,-29.309 0.896,-0.518 0.898,0.518 z" /></g><g
       transform="translate(117.8374,133.5102)"
       id="g36"><path
         id="path38"
         style="fill:#308592;fill-opacity:1;fill-rule:nonzero;stroke:none"
         d="m 0,0 -1.767,-1.02 v -0.019 l 0.006,-59.65 51.02,29.456 0.656,0.379 v 1.318 58.35 z" /></g><g
       transform="translate(114.2769,132.4906)"
       id="g40"><path
         id="path42"
         style="fill:#308592;fill-opacity:1;fill-rule:nonzero;stroke:none"
         d="m 0,0 -1.775,1.024 -49.883,28.802 v -58.084 -1.577 l 0.432,-0.25 L 0.005,-59.663 0,-0.014 Z" /></g></g></svg>