<svg id="visual" viewBox="0 0 1920 150" width="1920" height="150" xmlns="http://www.w3.org/2000/svg" xmlns:xlink="http://www.w3.org/1999/xlink" version="1.1"><rect x="0" y="0" width="1920" height="150" fill="#e9eefb"></rect><path d="M0 85L45.7 92.8C91.3 100.7 182.7 116.3 274.2 123.8C365.7 131.3 457.3 130.7 548.8 119.8C640.3 109 731.7 88 823 83.5C914.3 79 1005.7 91 1097 100.2C1188.3 109.3 1279.7 115.7 1371.2 106.8C1462.7 98 1554.3 74 1645.8 68.8C1737.3 63.7 1828.7 77.3 1874.3 84.2L1920 91L1920 151L1874.3 151C1828.7 151 1737.3 151 1645.8 151C1554.3 151 1462.7 151 1371.2 151C1279.7 151 1188.3 151 1097 151C1005.7 151 914.3 151 823 151C731.7 151 640.3 151 548.8 151C457.3 151 365.7 151 274.2 151C182.7 151 91.3 151 45.7 151L0 151Z" fill="#3A67DC" stroke-linecap="round" stroke-linejoin="miter"></path></svg>